Coordinates
version=1
nRows=41
nColumns=38
inDegrees=no

Units are S.I. units (second, meters, Newtons, ...)
If the header above contains a line with 'inDegrees', this indicates whether rotational values are in degrees (yes) or radians (no).

endheader
time	pelvis_tilt	pelvis_list	pelvis_rotation	pelvis_tx	pelvis_ty	pelvis_tz	hip_flexion_r	hip_adduction_r	hip_rotation_r	knee_angle_r	ankle_angle_r	subtalar_angle_r	mtp_angle_r	hip_flexion_l	hip_adduction_l	hip_rotation_l	knee_angle_l	ankle_angle_l	subtalar_angle_l	mtp_angle_l	lumbar_extension	lumbar_bending	lumbar_rotation	arm_flex_r	arm_add_r	arm_rot_r	elbow_flex_r	pro_sup_r	wrist_flex_r	wrist_dev_r	arm_flex_l	arm_add_l	arm_rot_l	elbow_flex_l	pro_sup_l	wrist_flex_l	wrist_dev_l
15	0.92772	1.4958	0.749731	0.646105	-0.715906	0.92587	0.357099	0.0308722	0.0336287	0.591537	-0.205868	0	0	0.124061	-0.103894	-0.135765	0.537859	-0.111318	0	0	-0.177154	0.100091	0.241647	0.649922	-0.41702	0.0978852	1.39704	1.5708	0	0	0.263475	-0.587142	-0.028769	1.14457	1.5708	0	0
15.01	0.932056	1.4953	0.746359	0.6441	-0.720206	0.925584	0.3632	0.0290782	0.0368927	0.593972	-0.210965	0	0	0.125592	-0.100172	-0.134099	0.531161	-0.10791	0	0	-0.176206	0.0995372	0.238079	0.649835	-0.421404	0.0999989	1.39781	1.5708	0	0	0.263813	-0.588502	-0.0262476	1.14468	1.5708	0	0
15.02	0.97302	1.49584	0.706868	0.642043	-0.724424	0.925556	0.365389	0.026947	0.0385647	0.594278	-0.214279	0	0	0.124986	-0.0984393	-0.13536	0.526926	-0.106319	0	0	-0.180113	0.102075	0.23492	0.648128	-0.423299	0.0976105	1.40167	1.5708	0	0	0.264721	-0.588915	-0.0241472	1.14336	1.5708	0	0
15.03	0.998485	1.4972	0.681978	0.640092	-0.728604	0.92551	0.367869	0.0251448	0.0421588	0.594443	-0.221234	0	0	0.123709	-0.0948488	-0.136309	0.520695	-0.10413	0	0	-0.181965	0.101138	0.232115	0.6478	-0.427812	0.0989025	1.40301	1.5708	0	0	0.265542	-0.590011	-0.0219522	1.14302	1.5708	0	0
15.04	1.00012	1.49965	0.68009	0.638264	-0.732878	0.925212	0.371064	0.0208754	0.0425583	0.594455	-0.224953	0	0	0.125006	-0.0896045	-0.138535	0.518744	-0.102643	0	0	-0.183874	0.0986729	0.22982	0.647378	-0.430337	0.0981535	1.40498	1.5708	0	0	0.266126	-0.59143	-0.020561	1.14291	1.5708	0	0
15.05	0.995204	1.50078	0.683319	0.636509	-0.737149	0.924967	0.37567	0.0170944	0.0430469	0.594875	-0.228907	0	0	0.126167	-0.0853834	-0.141545	0.513892	-0.101566	0	0	-0.18475	0.0970155	0.229063	0.647125	-0.433135	0.097745	1.40657	1.5708	0	0	0.265695	-0.59214	-0.0200212	1.14301	1.5708	0	0
15.06	1.00989	1.50076	0.666494	0.634834	-0.7413	0.925049	0.3784	0.0155316	0.0441629	0.592009	-0.234753	0	0	0.126938	-0.0833689	-0.144167	0.508886	-0.101441	0	0	-0.186105	0.0972766	0.228951	0.646672	-0.436406	0.098058	1.40807	1.5708	0	0	0.264947	-0.592258	-0.0195455	1.14199	1.5708	0	0
15.07	1.02973	1.50084	0.64453	0.63325	-0.745366	0.925312	0.379393	0.0143308	0.04464	0.586358	-0.240797	0	0	0.12759	-0.0817635	-0.146233	0.504269	-0.102435	0	0	-0.187807	0.0978376	0.228759	0.646557	-0.439328	0.0989963	1.4087	1.5708	0	0	0.264055	-0.592392	-0.019071	1.13984	1.5708	0	0
15.08	1.04497	1.50165	0.627151	0.631694	-0.74959	0.925612	0.380248	0.0120113	0.0445915	0.580462	-0.247449	0	0	0.128668	-0.0789961	-0.146528	0.500222	-0.104353	0	0	-0.189959	0.0977706	0.228632	0.647204	-0.442239	0.10032	1.40873	1.5708	0	0	0.263757	-0.5926	-0.0179975	1.1372	1.5708	0	0
15.09	1.06434	1.50263	0.605514	0.630198	-0.75389	0.925916	0.380853	0.00973263	0.0433409	0.575128	-0.252848	0	0	0.129968	-0.076256	-0.146499	0.497329	-0.10619	0	0	-0.193514	0.0983635	0.229253	0.646454	-0.44384	0.0987191	1.41116	1.5708	0	0	0.263851	-0.592501	-0.0166708	1.1343	1.5708	0	0
15.1	1.06685	1.50304	0.600059	0.628792	-0.758078	0.926193	0.381943	0.00766886	0.0437895	0.567691	-0.261441	0	0	0.132265	-0.0734704	-0.147882	0.494082	-0.109612	0	0	-0.194478	0.0977727	0.230832	0.644885	-0.44733	0.098631	1.41306	1.5708	0	0	0.264342	-0.592061	-0.0148396	1.13124	1.5708	0	0
15.11	0.938188	1.49909	0.722565	0.627795	-0.762406	0.925354	0.396874	0.00501128	0.0499036	0.565944	-0.269241	0	0	0.147209	-0.0698644	-0.153958	0.496271	-0.112102	0	0	-0.184071	0.0942675	0.234583	0.641197	-0.450157	0.0985895	1.41491	1.5708	0	0	0.262705	-0.592351	-0.0139578	1.12911	1.5708	0	0
15.12	0.864044	1.49551	0.793449	0.626528	-0.766334	0.925118	0.405055	0.00215829	0.050628	0.559269	-0.274673	0	0	0.157551	-0.0666742	-0.156209	0.495065	-0.11486	0	0	-0.175437	0.0919002	0.235374	0.63823	-0.454068	0.101024	1.41424	1.5708	0	0	0.2597	-0.592225	-0.0146011	1.12749	1.5708	0	0
15.13	0.825968	1.49442	0.828564	0.62525	-0.770328	0.925258	0.409123	-0.000848885	0.0519848	0.552909	-0.278572	0	0	0.162629	-0.0620327	-0.153993	0.490117	-0.117418	0	0	-0.173243	0.0911459	0.236848	0.634102	-0.455412	0.0987149	1.41748	1.5708	0	0	0.257942	-0.591877	-0.0146574	1.1249	1.5708	0	0
15.14	0.871196	1.496	0.781396	0.623706	-0.774148	0.925972	0.404347	-0.00149349	0.0514257	0.541091	-0.286964	0	0	0.161138	-0.060826	-0.153492	0.486058	-0.1215	0	0	-0.176129	0.0925462	0.237591	0.633352	-0.460823	0.102325	1.41756	1.5708	0	0	0.25609	-0.590622	-0.0155721	1.12366	1.5708	0	0
15.15	0.771724	1.49108	0.87471	0.623062	-0.777895	0.925342	0.417513	-0.00320484	0.0590105	0.539462	-0.291851	0	0	0.173629	-0.0569488	-0.155174	0.484785	-0.124173	0	0	-0.165514	0.0888034	0.241258	0.628175	-0.462181	0.10225	1.41928	1.5708	0	0	0.251747	-0.591367	-0.0175704	1.12335	1.5708	0	0
15.16	0.836972	1.49367	0.806634	0.621685	-0.781602	0.926016	0.412781	-0.00292853	0.0571401	0.536295	-0.293349	0	0	0.170526	-0.0571917	-0.156485	0.482527	-0.126177	0	0	-0.1718	0.0922889	0.24368	0.626605	-0.464786	0.10177	1.42207	1.5708	0	0	0.250205	-0.58965	-0.0187831	1.12178	1.5708	0	0
15.17	0.827933	1.49361	0.811171	0.620762	-0.78509	0.926143	0.416223	-0.00378398	0.0594281	0.540763	-0.291469	0	0	0.173036	-0.0550293	-0.158245	0.479432	-0.12906	0	0	-0.169566	0.0913131	0.245837	0.626221	-0.467966	0.106003	1.42075	1.5708	0	0	0.24546	-0.589406	-0.0230304	1.12167	1.5708	0	0
15.18	0.811249	1.49296	0.823715	0.61985	-0.788415	0.926126	0.42116	-0.00486736	0.0602359	0.550803	-0.28714	0	0	0.176707	-0.052954	-0.160135	0.477426	-0.130753	0	0	-0.166569	0.0911111	0.247736	0.62398	-0.469173	0.107678	1.42132	1.5708	0	0	0.240518	-0.589362	-0.0267232	1.12069	1.5708	0	0
15.19	0.827027	1.49535	0.804157	0.618982	-0.791871	0.92638	0.422648	-0.00643584	0.0593835	0.566451	-0.277703	0	0	0.176089	-0.0506707	-0.162214	0.474971	-0.132733	0	0	-0.168406	0.0906538	0.249352	0.62351	-0.47083	0.110158	1.422	1.5708	0	0	0.237002	-0.589146	-0.030442	1.11939	1.5708	0	0
15.2	0.854548	1.49844	0.7728	0.618165	-0.795209	0.926741	0.422497	-0.00791847	0.0583452	0.584928	-0.267683	0	0	0.173544	-0.0485627	-0.165076	0.471193	-0.135062	0	0	-0.171281	0.0901841	0.25114	0.623332	-0.472332	0.112712	1.42214	1.5708	0	0	0.233472	-0.588581	-0.0346595	1.11789	1.5708	0	0
15.21	0.895669	1.50196	0.727957	0.617408	-0.798441	0.927163	0.420999	-0.00904016	0.0577992	0.606088	-0.259813	0	0	0.169464	-0.046735	-0.168484	0.466562	-0.137639	0	0	-0.174976	0.0902483	0.252903	0.62344	-0.47335	0.115658	1.42219	1.5708	0	0	0.229708	-0.588081	-0.0390998	1.1161	1.5708	0	0
15.22	0.805949	1.49986	0.812787	0.617159	-0.801342	0.926617	0.432326	-0.0106777	0.0632686	0.633682	-0.251141	0	0	0.176478	-0.0429529	-0.171353	0.462334	-0.140059	0	0	-0.165559	0.0867765	0.254877	0.619042	-0.471931	0.117254	1.42201	1.5708	0	0	0.223534	-0.589466	-0.0431745	1.11441	1.5708	0	0
15.23	1.02372	1.50879	0.594672	0.615907	-0.804612	0.92812	0.413811	-0.00998044	0.0593143	0.652215	-0.246549	0	0	0.158312	-0.0438621	-0.173264	0.455336	-0.142575	0	0	-0.183359	0.0914696	0.254518	0.623393	-0.474871	0.122838	1.42162	1.5708	0	0	0.223006	-0.587714	-0.0458138	1.11201	1.5708	0	0
15.24	1.14529	1.51252	0.470848	0.61525	-0.807513	0.928771	0.405223	-0.00982198	0.0588643	0.675597	-0.241294	0	0	0.149334	-0.0445915	-0.180324	0.450641	-0.151224	0	0	-0.190265	0.0924567	0.254971	0.622945	-0.475401	0.12594	1.42238	1.5708	0	0	0.219999	-0.587548	-0.0494715	1.11014	1.5708	0	0
15.25	1.2237	1.51526	0.391032	0.61457	-0.810359	0.929239	0.399659	-0.0113659	0.0574999	0.700323	-0.23554	0	0	0.143263	-0.0415342	-0.179188	0.443063	-0.148436	0	0	-0.193456	0.0924818	0.254252	0.6209	-0.475104	0.128403	1.42349	1.5708	0	0	0.216304	-0.588172	-0.0525991	1.10752	1.5708	0	0
15.26	1.27945	1.51719	0.333984	0.613943	-0.813055	0.929516	0.395365	-0.0129846	0.0561588	0.725676	-0.230382	0	0	0.139132	-0.0397546	-0.181813	0.437076	-0.149832	0	0	-0.194426	0.0923399	0.253365	0.617728	-0.474347	0.130423	1.42501	1.5708	0	0	0.212031	-0.589116	-0.055505	1.10503	1.5708	0	0
15.27	1.39187	1.51915	0.220419	0.613302	-0.815804	0.929848	0.387625	-0.0142585	0.0541814	0.751679	-0.224794	0	0	0.135708	-0.0409579	-0.192279	0.44003	-0.150773	0	0	-0.198561	0.0930232	0.252583	0.616202	-0.47402	0.133043	1.42646	1.5708	0	0	0.209004	-0.589773	-0.0577168	1.10211	1.5708	0	0
15.28	1.49487	1.52183	0.116954	0.612807	-0.818487	0.930303	0.379584	-0.0169958	0.0524485	0.776957	-0.219138	0	0	0.127198	-0.03607	-0.18683	0.42807	-0.153351	0	0	-0.201982	0.0915938	0.251358	0.613535	-0.472912	0.134018	1.42769	1.5708	0	0	0.207407	-0.590863	-0.0582909	1.09791	1.5708	0	0
15.29	1.61086	1.52326	0.000710349	0.61232	-0.821081	0.930703	0.370532	-0.0195486	0.0493355	0.801194	-0.214645	0	0	0.121161	-0.0340071	-0.187556	0.422477	-0.15637	0	0	-0.205458	0.0909966	0.250103	0.611219	-0.472267	0.135627	1.42849	1.5708	0	0	0.205623	-0.591911	-0.058625	1.09367	1.5708	0	0
15.3	1.70901	1.52351	-0.0982811	0.611964	-0.823564	0.931002	0.36171	-0.0212734	0.0464617	0.824288	-0.21051	0	0	0.117489	-0.034722	-0.195186	0.421662	-0.167936	0	0	-0.207577	0.0910391	0.249422	0.608565	-0.471424	0.137388	1.42944	1.5708	0	0	0.203482	-0.592921	-0.0587178	1.08889	1.5708	0	0
15.31	1.78438	1.52273	-0.174745	0.61156	-0.826027	0.931128	0.352887	-0.021911	0.044307	0.845655	-0.206914	0	0	0.118459	-0.0377375	-0.208126	0.428683	-0.172914	0	0	-0.208487	0.09211	0.248865	0.605209	-0.470775	0.138905	1.43162	1.5708	0	0	0.200453	-0.593796	-0.058931	1.08438	1.5708	0	0
15.32	1.82988	1.52384	-0.220739	0.611312	-0.82853	0.931404	0.344551	-0.0239627	0.0436914	0.863913	-0.204504	0	0	0.11416	-0.0313092	-0.194796	0.415036	-0.16655	0	0	-0.207808	0.0905434	0.247524	0.600148	-0.469119	0.138605	1.43448	1.5708	0	0	0.19791	-0.595426	-0.0581644	1.07934	1.5708	0	0
15.33	1.88006	1.52348	-0.272772	0.611337	-0.830729	0.931583	0.334289	-0.0240581	0.0429542	0.879246	-0.202557	0	0	0.112212	-0.0301347	-0.192376	0.411235	-0.166313	0	0	-0.207074	0.0902551	0.24756	0.595165	-0.467218	0.13877	1.43645	1.5708	0	0	0.194841	-0.597107	-0.0572838	1.07436	1.5708	0	0
15.34	1.93358	1.52266	-0.329369	0.611613	-0.832796	0.931747	0.322642	-0.0233105	0.0426808	0.892158	-0.199315	0	0	0.110392	-0.0312508	-0.196098	0.410493	-0.174092	0	0	-0.206618	0.0900531	0.248768	0.590598	-0.46504	0.139522	1.43794	1.5708	0	0	0.191508	-0.599126	-0.055952	1.06923	1.5708	0	0
15.35	1.96083	1.52287	-0.35999	0.611846	-0.834957	0.931899	0.312436	-0.0229872	0.0441454	0.904773	-0.195041	0	0	0.109697	-0.0288461	-0.191254	0.405727	-0.169197	0	0	-0.205091	0.0892517	0.249808	0.585814	-0.462894	0.140501	1.44048	1.5708	0	0	0.18769	-0.600907	-0.0549966	1.06365	1.5708	0	0
15.36	1.96503	1.52325	-0.367945	0.612064	-0.837065	0.93191	0.303102	-0.0225133	0.0454404	0.916264	-0.191697	0	0	0.111023	-0.0283838	-0.19266	0.404338	-0.168381	0	0	-0.202213	0.0888172	0.250972	0.580004	-0.460876	0.141454	1.44469	1.5708	0	0	0.183214	-0.602395	-0.0541796	1.05789	1.5708	0	0
15.37	1.96304	1.52336	-0.370732	0.612378	-0.839164	0.931878	0.29376	-0.0214379	0.0468603	0.926508	-0.188529	0	0	0.113263	-0.0299297	-0.199924	0.406141	-0.176626	0	0	-0.199154	0.0888142	0.253237	0.574281	-0.459383	0.143248	1.44897	1.5708	0	0	0.179796	-0.603673	-0.051625	1.05067	1.5708	0	0
15.38	1.95337	1.52414	-0.366076	0.612723	-0.84129	0.931844	0.284526	-0.0205219	0.048713	0.9344	-0.186622	0	0	0.115774	-0.0296571	-0.202657	0.405574	-0.180549	0	0	-0.1957	0.0881135	0.255726	0.568824	-0.457838	0.144911	1.45254	1.5708	0	0	0.17683	-0.604648	-0.0487097	1.0427	1.5708	0	0
15.39	1.94579	1.5258	-0.363433	0.613101	-0.843385	0.931801	0.274922	-0.0206155	0.0503321	0.940886	-0.184104	0	0	0.118099	-0.0271822	-0.200935	0.402477	-0.175754	0	0	-0.192035	0.0865186	0.258027	0.563232	-0.456218	0.14642	1.45596	1.5708	0	0	0.174256	-0.605873	-0.0451952	1.03399	1.5708	0	0
15.4	1.90827	1.52776	-0.33282	0.613887	-0.845501	0.931554	0.267565	-0.0184787	0.0658568	0.954746	-0.195691	0	0	0.122181	-0.0263767	-0.202866	0.401231	-0.176601	0	0	-0.18702	0.0845476	0.262212	0.557756	-0.454048	0.148182	1.45908	1.5708	0	0	0.17217	-0.607864	-0.040364	1.02425	1.5708	0	0
